<svg width="30" height="30" viewBox="0 0 30 30" fill="none" xmlns="http://www.w3.org/2000/svg">
<g opacity="0.5">
<path d="M23.1465 15.9744L24.0751 16.1036L23.1465 15.9744ZM22.8186 18.3306L23.7471 18.4599L22.8186 18.3306ZM7.18142 18.3307L8.10997 18.2014L7.18142 18.3307ZM6.8535 15.9744L5.92495 16.1036L6.8535 15.9744ZM11.4796 27.171L11.1151 28.0348H11.1151L11.4796 27.171ZM8.09385 23.2004L8.97384 22.8771H8.97384L8.09385 23.2004ZM21.9061 23.2004L22.7861 23.5237V23.5237L21.9061 23.2004ZM18.5204 27.171L18.156 26.3073L18.5204 27.171ZM7.1833 11.1613C7.13432 10.6459 6.67677 10.2677 6.16132 10.3167C5.64588 10.3657 5.26773 10.8232 5.3167 11.3387L7.1833 11.1613ZM24.6833 11.3387C24.7323 10.8232 24.3541 10.3657 23.8387 10.3167C23.3232 10.2677 22.8657 10.6459 22.8167 11.1613L24.6833 11.3387ZM25 9.6875C25.5178 9.6875 25.9375 9.26777 25.9375 8.75C25.9375 8.23223 25.5178 7.8125 25 7.8125V9.6875ZM5 7.8125C4.48223 7.8125 4.0625 8.23223 4.0625 8.75C4.0625 9.26777 4.48223 9.6875 5 9.6875V7.8125ZM11.5625 22.5C11.5625 23.0178 11.9822 23.4375 12.5 23.4375C13.0178 23.4375 13.4375 23.0178 13.4375 22.5H11.5625ZM13.4375 12.5C13.4375 11.9822 13.0178 11.5625 12.5 11.5625C11.9822 11.5625 11.5625 11.9822 11.5625 12.5H13.4375ZM16.5625 22.5C16.5625 23.0178 16.9822 23.4375 17.5 23.4375C18.0178 23.4375 18.4375 23.0178 18.4375 22.5H16.5625ZM18.4375 12.5C18.4375 11.9822 18.0178 11.5625 17.5 11.5625C16.9822 11.5625 16.5625 11.9822 16.5625 12.5H18.4375ZM20 8.75V9.6875H20.9375V8.75H20ZM10 8.75H9.0625V9.6875H10V8.75ZM23.1465 15.9744L22.2179 15.8451L21.89 18.2014L22.8186 18.3306L23.7471 18.4599L24.0751 16.1036L23.1465 15.9744ZM7.18142 18.3307L8.10997 18.2014L7.78205 15.8451L6.8535 15.9744L5.92495 16.1036L6.25287 18.4599L7.18142 18.3307ZM15 27.5V26.5625C13.0885 26.5625 12.4068 26.5448 11.844 26.3073L11.4796 27.171L11.1151 28.0348C12.1114 28.4552 13.257 28.4375 15 28.4375V27.5ZM7.18142 18.3307L6.25287 18.4599C6.6025 20.9722 6.79258 22.3771 7.21387 23.5237L8.09385 23.2004L8.97384 22.8771C8.63945 21.967 8.47313 20.8109 8.10997 18.2014L7.18142 18.3307ZM11.4796 27.171L11.844 26.3073C10.691 25.8207 9.6187 24.6323 8.97384 22.8771L8.09385 23.2004L7.21387 23.5237C7.98213 25.6148 9.35257 27.291 11.1151 28.0348L11.4796 27.171ZM22.8186 18.3306L21.89 18.2014C21.5269 20.8109 21.3606 21.967 21.0262 22.8771L21.9061 23.2004L22.7861 23.5237C23.2074 22.3771 23.3975 20.9722 23.7471 18.4599L22.8186 18.3306ZM15 27.5V28.4375C16.743 28.4375 17.8886 28.4552 18.8849 28.0348L18.5204 27.171L18.156 26.3073C17.5932 26.5448 16.9115 26.5625 15 26.5625V27.5ZM21.9061 23.2004L21.0262 22.8771C20.3813 24.6323 19.309 25.8207 18.156 26.3073L18.5204 27.171L18.8849 28.0348C20.6474 27.291 22.0179 25.6148 22.7861 23.5237L21.9061 23.2004ZM6.8535 15.9744L7.78205 15.8451C7.5044 13.85 7.29707 12.3588 7.1833 11.1613L6.25 11.25L5.3167 11.3387C5.43524 12.5862 5.64951 14.1244 5.92495 16.1036L6.8535 15.9744ZM23.1465 15.9744L24.0751 16.1036C24.3505 14.1244 24.5648 12.5862 24.6833 11.3387L23.75 11.25L22.8167 11.1613C22.7029 12.3588 22.4956 13.85 22.2179 15.8451L23.1465 15.9744ZM25 8.75V7.8125H5V8.75V9.6875H25V8.75ZM12.5 22.5H13.4375V12.5H12.5H11.5625V22.5H12.5ZM17.5 22.5H18.4375V12.5H17.5H16.5625V22.5H17.5ZM20 7.5H19.0625V8.75H20H20.9375V7.5H20ZM20 8.75V7.8125H10V8.75V9.6875H20V8.75ZM10 8.75H10.9375V7.5H10H9.0625V8.75H10ZM15 2.5V3.4375C17.2437 3.4375 19.0625 5.25634 19.0625 7.5H20H20.9375C20.9375 4.22081 18.2792 1.5625 15 1.5625V2.5ZM15 2.5V1.5625C11.7208 1.5625 9.0625 4.22081 9.0625 7.5H10H10.9375C10.9375 5.25634 12.7563 3.4375 15 3.4375V2.5Z" fill="white"/>
</g>
</svg>
