<svg width="30" height="30" viewBox="0 0 30 30" fill="none" xmlns="http://www.w3.org/2000/svg">
<path d="M23.1465 15.9744L24.0751 16.1036L24.0751 16.1036L23.1465 15.9744ZM22.8186 18.3307L23.7471 18.4599L23.7471 18.4599L22.8186 18.3307ZM7.18142 18.3307L8.10997 18.2015L8.10997 18.2015L7.18142 18.3307ZM6.8535 15.9744L5.92495 16.1037L5.92495 16.1037L6.8535 15.9744ZM11.4796 27.1711L11.1151 28.0348L11.1151 28.0348L11.4796 27.1711ZM8.09385 23.2005L8.97384 22.8772L8.97384 22.8772L8.09385 23.2005ZM21.9061 23.2005L22.7861 23.5238L22.7861 23.5238L21.9061 23.2005ZM18.5204 27.1711L18.156 26.3074L18.156 26.3074L18.5204 27.1711ZM7.1833 11.1614C7.13432 10.6459 6.67677 10.2678 6.16132 10.3168C5.64588 10.3657 5.26773 10.8233 5.3167 11.3387L7.1833 11.1614ZM24.6833 11.3387C24.7323 10.8233 24.3541 10.3657 23.8387 10.3168C23.3232 10.2678 22.8657 10.6459 22.8167 11.1614L24.6833 11.3387ZM25 9.68756C25.5178 9.68756 25.9375 9.26783 25.9375 8.75006C25.9375 8.23229 25.5178 7.81256 25 7.81256V9.68756ZM5 7.81256C4.48223 7.81256 4.0625 8.23229 4.0625 8.75006C4.0625 9.26783 4.48223 9.68756 5 9.68756V7.81256ZM11.5625 22.5001C11.5625 23.0178 11.9822 23.4376 12.5 23.4376C13.0178 23.4376 13.4375 23.0178 13.4375 22.5001H11.5625ZM13.4375 12.5001C13.4375 11.9823 13.0178 11.5626 12.5 11.5626C11.9822 11.5626 11.5625 11.9823 11.5625 12.5001H13.4375ZM16.5625 22.5001C16.5625 23.0178 16.9822 23.4376 17.5 23.4376C18.0178 23.4376 18.4375 23.0178 18.4375 22.5001H16.5625ZM18.4375 12.5001C18.4375 11.9823 18.0178 11.5626 17.5 11.5626C16.9822 11.5626 16.5625 11.9823 16.5625 12.5001H18.4375ZM20 8.75006V9.68756H20.9375V8.75006H20ZM10 8.75006H9.0625V9.68756H10V8.75006ZM23.1465 15.9744L22.2179 15.8452L21.89 18.2015L22.8186 18.3307L23.7471 18.4599L24.0751 16.1036L23.1465 15.9744ZM7.18142 18.3307L8.10997 18.2015L7.78205 15.8452L6.8535 15.9744L5.92495 16.1037L6.25287 18.4599L7.18142 18.3307ZM15 27.5001V26.5626C13.0885 26.5626 12.4068 26.5448 11.844 26.3074L11.4796 27.1711L11.1151 28.0348C12.1114 28.4553 13.257 28.4376 15 28.4376V27.5001ZM7.18142 18.3307L6.25287 18.4599C6.6025 20.9722 6.79258 22.3771 7.21387 23.5238L8.09385 23.2005L8.97384 22.8772C8.63945 21.967 8.47313 20.811 8.10997 18.2015L7.18142 18.3307ZM11.4796 27.1711L11.844 26.3074C10.691 25.8208 9.6187 24.6323 8.97384 22.8772L8.09385 23.2005L7.21387 23.5238C7.98213 25.6148 9.35257 27.2911 11.1151 28.0348L11.4796 27.1711ZM22.8186 18.3307L21.89 18.2015C21.5269 20.811 21.3606 21.967 21.0262 22.8772L21.9061 23.2005L22.7861 23.5238C23.2074 22.3771 23.3975 20.9722 23.7471 18.4599L22.8186 18.3307ZM15 27.5001V28.4376C16.743 28.4376 17.8886 28.4553 18.8849 28.0348L18.5204 27.1711L18.156 26.3074C17.5932 26.5448 16.9115 26.5626 15 26.5626V27.5001ZM21.9061 23.2005L21.0262 22.8772C20.3813 24.6323 19.309 25.8208 18.156 26.3074L18.5204 27.1711L18.8849 28.0348C20.6474 27.2911 22.0179 25.6148 22.7861 23.5238L21.9061 23.2005ZM6.8535 15.9744L7.78205 15.8452C7.5044 13.8501 7.29707 12.3588 7.1833 11.1614L6.25 11.2501L5.3167 11.3387C5.43524 12.5863 5.64951 14.1245 5.92495 16.1037L6.8535 15.9744ZM23.1465 15.9744L24.0751 16.1036C24.3505 14.1245 24.5648 12.5863 24.6833 11.3387L23.75 11.2501L22.8167 11.1614C22.7029 12.3588 22.4956 13.8501 22.2179 15.8452L23.1465 15.9744ZM25 8.75006V7.81256H5V8.75006V9.68756H25V8.75006ZM12.5 22.5001H13.4375V12.5001H12.5H11.5625V22.5001H12.5ZM17.5 22.5001H18.4375V12.5001H17.5H16.5625V22.5001H17.5ZM20 7.50006H19.0625V8.75006H20H20.9375V7.50006H20ZM20 8.75006V7.81256H10V8.75006V9.68756H20V8.75006ZM10 8.75006H10.9375V7.50006H10H9.0625V8.75006H10ZM15 2.50006V3.43756C17.2437 3.43756 19.0625 5.2564 19.0625 7.50006H20H20.9375C20.9375 4.22087 18.2792 1.56256 15 1.56256V2.50006ZM15 2.50006V1.56256C11.7208 1.56256 9.0625 4.22087 9.0625 7.50006H10H10.9375C10.9375 5.2564 12.7563 3.43756 15 3.43756V2.50006Z" fill="white"/>
</svg>
