<svg width="30" height="30" viewBox="0 0 30 30" fill="none" xmlns="http://www.w3.org/2000/svg">
<g clip-path="url(#clip0_77_440)">
<path d="M7.41485 6.73309L7.1869 7.64245L7.41485 6.73309ZM11.633 4.29771L10.7315 4.04043L11.633 4.29771ZM4.04796 12.5647L4.72152 11.9126L4.04796 12.5647ZM4.04796 17.4355L3.3744 16.7834L3.3744 16.7834L4.04796 17.4355ZM7.41485 23.2671L7.64279 24.1764L7.41485 23.2671ZM11.633 25.7025L10.7315 25.9597L10.7315 25.9597L11.633 25.7025ZM18.3668 25.7025L19.2683 25.9597L18.3668 25.7025ZM22.585 23.2671L22.813 22.3577L22.585 23.2671ZM25.9519 17.4355L25.2783 18.0875L25.2783 18.0875L25.9519 17.4355ZM25.9519 12.5647L25.2783 11.9126L25.2783 11.9126L25.9519 12.5647ZM22.585 6.73309L22.3571 5.82372L22.585 6.73309ZM18.3668 4.29771L19.2683 4.04043L18.3668 4.29771ZM7.41485 6.73309L7.1869 7.64245C9.51054 8.2249 11.8771 6.85854 12.5346 4.55499L11.633 4.29771L10.7315 4.04043C10.3518 5.37094 8.9849 6.16014 7.64279 5.82372L7.41485 6.73309ZM4.04796 12.5647L4.72152 11.9126C2.92744 10.0595 4.68498 7.01532 7.1869 7.64245L7.41485 6.73309L7.64279 5.82372C3.31113 4.73794 0.268248 10.0084 3.3744 13.2168L4.04796 12.5647ZM4.04796 17.4355L4.72152 18.0875C6.38775 16.3664 6.38775 13.6337 4.72152 11.9126L4.04796 12.5647L3.3744 13.2168C4.3368 14.2109 4.3368 15.7893 3.3744 16.7834L4.04796 17.4355ZM7.41485 23.2671L7.1869 22.3577C4.68498 22.9848 2.92744 19.9407 4.72152 18.0875L4.04796 17.4355L3.3744 16.7834C0.268247 19.9918 3.31113 25.2622 7.64279 24.1764L7.41485 23.2671ZM11.633 25.7025L12.5346 25.4452C11.8771 23.1416 9.51054 21.7753 7.1869 22.3577L7.41485 23.2671L7.64279 24.1764C8.9849 23.84 10.3518 24.6292 10.7315 25.9597L11.633 25.7025ZM18.3668 25.7025L17.4653 25.4452C16.7575 27.9255 13.2424 27.9255 12.5346 25.4452L11.633 25.7025L10.7315 25.9597C11.9571 30.254 18.0428 30.254 19.2683 25.9597L18.3668 25.7025ZM22.585 23.2671L22.813 22.3577C20.4893 21.7753 18.1227 23.1416 17.4653 25.4452L18.3668 25.7025L19.2683 25.9597C19.648 24.6292 21.015 23.84 22.3571 24.1764L22.585 23.2671ZM25.9519 17.4355L25.2783 18.0875C27.0724 19.9407 25.3149 22.9848 22.813 22.3577L22.585 23.2671L22.3571 24.1764C26.6887 25.2622 29.7316 19.9918 26.6255 16.7834L25.9519 17.4355ZM25.9519 12.5647L25.2783 11.9126C23.6121 13.6337 23.6121 16.3664 25.2783 18.0875L25.9519 17.4355L26.6255 16.7834C25.6631 15.7893 25.6631 14.2109 26.6255 13.2168L25.9519 12.5647ZM22.585 6.73309L22.813 7.64245C25.3149 7.01532 27.0724 10.0595 25.2783 11.9126L25.9519 12.5647L26.6255 13.2168C29.7316 10.0084 26.6887 4.73793 22.3571 5.82372L22.585 6.73309ZM18.3668 4.29771L17.4653 4.55499C18.1227 6.85854 20.4893 8.2249 22.813 7.64245L22.585 6.73309L22.3571 5.82372C21.015 6.16014 19.648 5.37094 19.2683 4.04043L18.3668 4.29771ZM18.3668 4.29771L19.2683 4.04043C18.0428 -0.253794 11.9571 -0.253793 10.7315 4.04043L11.633 4.29771L12.5346 4.55499C13.2424 2.07469 16.7575 2.07469 17.4653 4.55499L18.3668 4.29771ZM11.2499 15.0001H10.3124C10.3124 17.5889 12.4111 19.6876 14.9999 19.6876V18.7501V17.8126C13.4466 17.8126 12.1874 16.5534 12.1874 15.0001H11.2499ZM14.9999 18.7501V19.6876C17.5888 19.6876 19.6874 17.5889 19.6874 15.0001H18.7499H17.8124C17.8124 16.5534 16.5532 17.8126 14.9999 17.8126V18.7501ZM18.7499 15.0001H19.6874C19.6874 12.4112 17.5888 10.3126 14.9999 10.3126V11.2501V12.1876C16.5532 12.1876 17.8124 13.4468 17.8124 15.0001H18.7499ZM14.9999 11.2501V10.3126C12.4111 10.3126 10.3124 12.4112 10.3124 15.0001H11.2499H12.1874C12.1874 13.4468 13.4466 12.1876 14.9999 12.1876V11.2501Z" fill="white"/>
</g>
<defs>
<clipPath id="clip0_77_440">
<rect width="30" height="30" fill="white"/>
</clipPath>
</defs>
</svg>
