<svg width="30" height="30" viewBox="0 0 30 30" fill="none" xmlns="http://www.w3.org/2000/svg">
<g opacity="0.5">
<path d="M7.41497 6.73303L7.18703 7.64239L7.41497 6.73303ZM11.6332 4.29765L10.7317 4.04037L11.6332 4.29765ZM4.04808 12.5646L4.72165 11.9126L4.04808 12.5646ZM4.04808 17.4354L3.37452 16.7833H3.37452L4.04808 17.4354ZM7.41497 23.267L7.64291 24.1764L7.41497 23.267ZM11.6332 25.7024L10.7317 25.9597L11.6332 25.7024ZM18.3669 25.7024L19.2684 25.9597L18.3669 25.7024ZM22.5851 23.267L22.8131 22.3577L22.5851 23.267ZM25.952 17.4354L25.2785 18.0875L25.952 17.4354ZM25.952 12.5646L25.2785 11.9126L25.952 12.5646ZM22.5851 6.73303L22.3572 5.82366L22.5851 6.73303ZM18.3669 4.29765L19.2684 4.04037L18.3669 4.29765ZM7.41497 6.73303L7.18703 7.64239C9.51066 8.22484 11.8773 6.85848 12.5347 4.55493L11.6332 4.29765L10.7317 4.04037C10.352 5.37088 8.98502 6.16008 7.64291 5.82366L7.41497 6.73303ZM4.04808 12.5646L4.72165 11.9126C2.92757 10.0594 4.6851 7.01525 7.18703 7.64239L7.41497 6.73303L7.64291 5.82366C3.31125 4.73787 0.26837 10.0083 3.37452 13.2167L4.04808 12.5646ZM4.04808 17.4354L4.72165 18.0875C6.38788 16.3664 6.38788 13.6337 4.72165 11.9126L4.04808 12.5646L3.37452 13.2167C4.33692 14.2108 4.33692 15.7892 3.37452 16.7833L4.04808 17.4354ZM7.41497 23.267L7.18703 22.3577C4.6851 22.9848 2.92756 19.9406 4.72165 18.0875L4.04808 17.4354L3.37452 16.7833C0.268369 19.9917 3.31125 25.2622 7.64291 24.1764L7.41497 23.267ZM11.6332 25.7024L12.5347 25.4451C11.8773 23.1416 9.51066 21.7752 7.18703 22.3577L7.41497 23.267L7.64291 24.1764C8.98502 23.84 10.352 24.6292 10.7317 25.9597L11.6332 25.7024ZM18.3669 25.7024L17.4654 25.4451C16.7576 27.9254 13.2425 27.9254 12.5347 25.4451L11.6332 25.7024L10.7317 25.9597C11.9572 30.2539 18.0429 30.2539 19.2684 25.9597L18.3669 25.7024ZM22.5851 23.267L22.8131 22.3577C20.4894 21.7752 18.1228 23.1416 17.4654 25.4451L18.3669 25.7024L19.2684 25.9597C19.6482 24.6292 21.0151 23.84 22.3572 24.1764L22.5851 23.267ZM25.952 17.4354L25.2785 18.0875C27.0725 19.9406 25.315 22.9848 22.8131 22.3577L22.5851 23.267L22.3572 24.1764C26.6889 25.2622 29.7317 19.9917 26.6256 16.7833L25.952 17.4354ZM25.952 12.5646L25.2785 11.9126C23.6122 13.6337 23.6122 16.3664 25.2785 18.0875L25.952 17.4354L26.6256 16.7833C25.6632 15.7892 25.6632 14.2108 26.6256 13.2167L25.952 12.5646ZM22.5851 6.73303L22.8131 7.64239C25.315 7.01525 27.0725 10.0594 25.2785 11.9126L25.952 12.5646L26.6256 13.2167C29.7317 10.0083 26.6889 4.73787 22.3572 5.82366L22.5851 6.73303ZM18.3669 4.29765L17.4654 4.55493C18.1228 6.85848 20.4894 8.22484 22.8131 7.64239L22.5851 6.73303L22.3572 5.82366C21.0151 6.16008 19.6482 5.37088 19.2684 4.04037L18.3669 4.29765ZM18.3669 4.29765L19.2684 4.04037C18.0429 -0.253855 11.9572 -0.253854 10.7317 4.04037L11.6332 4.29765L12.5347 4.55493C13.2425 2.07463 16.7576 2.07463 17.4654 4.55493L18.3669 4.29765ZM11.2501 15H10.3126C10.3126 17.5889 12.4112 19.6875 15.0001 19.6875V18.75V17.8125C13.4468 17.8125 12.1876 16.5533 12.1876 15H11.2501ZM15.0001 18.75V19.6875C17.5889 19.6875 19.6876 17.5889 19.6876 15H18.7501H17.8126C17.8126 16.5533 16.5534 17.8125 15.0001 17.8125V18.75ZM18.7501 15H19.6876C19.6876 12.4112 17.5889 10.3125 15.0001 10.3125V11.25V12.1875C16.5534 12.1875 17.8126 13.4467 17.8126 15H18.7501ZM15.0001 11.25V10.3125C12.4112 10.3125 10.3126 12.4112 10.3126 15H11.2501H12.1876C12.1876 13.4467 13.4468 12.1875 15.0001 12.1875V11.25Z" fill="white"/>
</g>
</svg>
