<svg width="30" height="30" viewBox="0 0 30 30" fill="none" xmlns="http://www.w3.org/2000/svg">
<path d="M11.4792 26.25L11.8542 26.75C13.5417 29 16.9167 29 18.6042 26.75L18.9792 26.25M5.45774 19.437L5.58693 19.7033C6.41664 21.4139 8.15067 22.5 10.0518 22.5H20.3278C21.9569 22.5 23.4732 21.6677 24.3479 20.2933C25.5826 18.3532 25.2556 15.8081 23.5705 14.2432L23.5156 14.1922C22.3715 13.1297 21.8083 11.5818 22.0019 10.0325L22.0827 9.38632C22.5398 5.72974 19.6886 2.5 16.0036 2.5H13.8749C10.1944 2.5 7.34672 5.7258 7.80323 9.37792L7.90243 10.1715C8.0851 11.6329 7.55128 13.0926 6.46892 14.0914C4.99053 15.4557 4.57978 17.627 5.45774 19.437Z" stroke="white" stroke-width="1.875" stroke-linecap="round"/>
</svg>
