<svg width="30" height="30" viewBox="0 0 30 30" fill="none" xmlns="http://www.w3.org/2000/svg">
<path d="M15.9375 10C15.9375 9.48223 15.5178 9.0625 15 9.0625C14.4822 9.0625 14.0625 9.48223 14.0625 10H15.9375ZM17.7789 18.9369C18.2273 19.1958 18.8007 19.0421 19.0596 18.5937C19.3185 18.1453 19.1648 17.572 18.7164 17.3131L17.7789 18.9369ZM3.16435 3.33044C2.76004 3.65388 2.69449 4.24384 3.01794 4.64815C3.34138 5.05246 3.93134 5.11801 4.33565 4.79456L3.16435 3.33044ZM7.46065 2.29456C7.86496 1.97112 7.93051 1.38116 7.60706 0.976848C7.28362 0.57254 6.69366 0.506989 6.28935 0.830436L7.46065 2.29456ZM25.6643 4.79456C26.0687 5.11801 26.6586 5.05246 26.9821 4.64815C27.3055 4.24384 27.24 3.65388 26.8357 3.33044L25.6643 4.79456ZM23.7107 0.830436C23.3063 0.506989 22.7164 0.57254 22.3929 0.976848C22.0695 1.38116 22.135 1.97112 22.5393 2.29456L23.7107 0.830436ZM15.3349 16.0566L16.1468 15.5879L15.3349 16.0566ZM15 10H14.0625L14.0625 13.3632H15H15.9375L15.9375 10H15ZM18.2477 18.125L18.7164 17.3131L17.9688 16.8815L17.5 17.6934L17.0313 18.5053L17.7789 18.9369L18.2477 18.125ZM27.5 15H26.5625C26.5625 21.3858 21.3858 26.5625 15 26.5625V27.5V28.4375C22.4213 28.4375 28.4375 22.4213 28.4375 15H27.5ZM15 27.5V26.5625C8.61421 26.5625 3.4375 21.3858 3.4375 15H2.5H1.5625C1.5625 22.4213 7.57867 28.4375 15 28.4375V27.5ZM2.5 15H3.4375C3.4375 8.61421 8.61421 3.4375 15 3.4375V2.5V1.5625C7.57867 1.5625 1.5625 7.57867 1.5625 15H2.5ZM15 2.5V3.4375C21.3858 3.4375 26.5625 8.61421 26.5625 15H27.5H28.4375C28.4375 7.57867 22.4213 1.5625 15 1.5625V2.5ZM3.75 4.0625L4.33565 4.79456L7.46065 2.29456L6.875 1.5625L6.28935 0.830436L3.16435 3.33044L3.75 4.0625ZM26.25 4.0625L26.8357 3.33044L23.7107 0.830436L23.125 1.5625L22.5393 2.29456L25.6643 4.79456L26.25 4.0625ZM15 13.3632H14.0625C14.0625 14.0494 14.0615 14.6314 14.1089 15.1127C14.1584 15.6144 14.2656 16.0795 14.523 16.5254L15.3349 16.0566L16.1468 15.5879C16.0693 15.4536 16.0091 15.2764 15.9748 14.9287C15.9385 14.5605 15.9375 14.0859 15.9375 13.3632H15ZM17.5 17.6934L17.9688 16.8815C17.3429 16.5201 16.9324 16.2819 16.6317 16.0664C16.3477 15.8629 16.2244 15.7221 16.1468 15.5879L15.3349 16.0566L14.523 16.5254C14.7805 16.9713 15.1296 17.2967 15.5394 17.5904C15.9325 17.8721 16.437 18.1622 17.0313 18.5053L17.5 17.6934Z" fill="white"/>
</svg>
